<?xml version="1.0" standalone="no"?>
<!DOCTYPE svg PUBLIC "-//W3C//DTD SVG 20010904//EN"
 "http://www.w3.org/TR/2001/REC-SVG-20010904/DTD/svg10.dtd">
<svg version="1.0" xmlns="http://www.w3.org/2000/svg"
 width="244.000000pt" height="294.000000pt" viewBox="0 0 244.000000 294.000000"
 preserveAspectRatio="xMidYMid meet">

<g transform="translate(0.000000,294.000000) scale(0.100000,-0.100000)"
fill="#000000" stroke="none">
<path d="M855 2673 c-46 -24 -76 -54 -93 -93 -8 -19 -63 -217 -123 -440 -60
-223 -122 -454 -139 -515 -75 -278 -278 -1043 -285 -1074 -17 -80 48 -186 132
-215 67 -23 388 -23 421 0 27 18 28 45 4 67 -14 13 -38 17 -100 17 l-82 0 15
38 c8 20 34 116 59 212 25 96 50 189 54 205 l8 30 312 3 c218 1 312 -1 312 -8
0 -6 -19 -80 -42 -163 -50 -177 -55 -250 -22 -312 23 -45 69 -80 123 -95 20
-5 115 -10 211 -10 186 0 220 8 220 49 0 37 -32 51 -119 51 -75 0 -82 2 -76
17 4 10 38 133 75 273 38 140 89 332 114 425 26 94 66 244 91 335 24 91 53
199 64 240 36 141 172 645 186 694 47 160 -38 286 -193 286 -46 0 -66 -6 -97
-26 -58 -37 -76 -67 -106 -174 l-26 -95 -311 -3 -310 -2 5 79 c5 73 4 83 -21
125 -37 64 -95 96 -172 96 -34 -1 -72 -8 -89 -17z m156 -112 c31 -32 36 -61
18 -123 -8 -30 -15 -38 -33 -38 -82 0 -146 -46 -166 -119 -10 -37 -9 -51 5
-88 16 -41 68 -93 94 -93 8 0 10 -8 5 -22 -4 -13 -21 -77 -39 -142 l-31 -120
-59 -13 c-129 -29 -184 -153 -108 -243 14 -17 38 -37 53 -45 l28 -15 -37 -142
-37 -143 -53 -7 c-30 -3 -66 -15 -80 -26 -88 -65 -84 -204 7 -253 19 -9 36
-19 38 -22 5 -5 -100 -397 -116 -435 -15 -35 -73 -56 -116 -42 -19 6 -41 21
-49 33 -30 42 -32 30 165 762 135 500 174 648 195 730 13 50 35 133 50 185 15
52 44 162 65 244 45 173 66 206 133 206 29 0 45 -7 68 -29z m1042 5 c14 -13
29 -36 32 -49 6 -24 -36 -195 -170 -682 -24 -88 -62 -227 -83 -310 -22 -82
-76 -287 -122 -455 -45 -168 -97 -366 -116 -440 -37 -143 -54 -177 -98 -198
-39 -19 -94 2 -119 46 l-19 33 32 127 c18 70 56 215 85 322 52 189 100 368
240 895 37 138 91 339 121 447 30 109 54 204 54 212 0 8 13 28 29 45 38 40 95
43 134 7z m-333 -283 c0 -5 -5 -25 -11 -45 l-10 -38 -372 0 c-392 0 -397 1
-397 45 0 45 4 45 407 45 211 0 383 -3 383 -7z m-55 -210 c-3 -16 -20 -82 -38
-148 l-32 -120 -313 -3 c-171 -1 -312 0 -312 3 0 9 72 280 77 288 2 4 144 7
314 7 l311 0 -7 -27z m-105 -384 c0 -7 -5 -29 -12 -50 l-11 -39 -365 0 c-326
0 -367 2 -384 17 -24 22 -23 49 4 67 19 14 74 16 395 16 271 0 373 -3 373 -11z
m-50 -196 c0 -4 -17 -70 -37 -145 l-37 -138 -313 0 c-172 0 -313 3 -313 6 0 3
16 61 35 130 19 68 35 131 35 139 0 13 41 15 315 15 173 0 315 -3 315 -7z
m-110 -400 c0 -5 -5 -25 -11 -45 l-10 -38 -369 0 c-322 0 -371 2 -384 16 -19
18 -21 45 -4 62 9 9 110 12 395 12 211 0 383 -3 383 -7z"/>
<path d="M868 409 c-25 -14 -23 -65 2 -79 47 -25 94 22 65 66 -16 25 -39 30
-67 13z"/>
</g>
</svg>
